<?xml version="1.0" encoding="UTF-8" standalone="no"?>
<!-- Created with Inkscape (http://www.inkscape.org/) -->

<svg
   xmlns:dc="http://purl.org/dc/elements/1.1/"
   xmlns:cc="http://creativecommons.org/ns#"
   xmlns:rdf="http://www.w3.org/1999/02/22-rdf-syntax-ns#"
   xmlns:svg="http://www.w3.org/2000/svg"
   xmlns="http://www.w3.org/2000/svg"
   xmlns:sodipodi="http://sodipodi.sourceforge.net/DTD/sodipodi-0.dtd"
   xmlns:inkscape="http://www.inkscape.org/namespaces/inkscape"
   width="182.16541"
   height="182.16541"
   id="svg18586"
   sodipodi:version="0.32"
   inkscape:version="0.48.4 r9939"
   version="1.0"
   sodipodi:docname="audio.svg"
   inkscape:output_extension="org.inkscape.output.svg.inkscape">
  <defs
     id="defs18588">
    <inkscape:path-effect
       is_visible="true"
       id="path-effect4335"
       effect="spiro" />
    <inkscape:path-effect
       effect="spiro"
       id="path-effect4331"
       is_visible="true" />
    <inkscape:path-effect
       effect="spiro"
       id="path-effect4327"
       is_visible="true" />
    <inkscape:perspective
       sodipodi:type="inkscape:persp3d"
       inkscape:vp_x="0 : 106.29922 : 1"
       inkscape:vp_y="0 : 1000 : 0"
       inkscape:vp_z="212.59842 : 106.29922 : 1"
       inkscape:persp3d-origin="106.29921 : 70.86615 : 1"
       id="perspective3756" />
  </defs>
  <sodipodi:namedview
     id="base"
     pagecolor="#ffffff"
     bordercolor="#666666"
     borderopacity="1.0"
     inkscape:pageopacity="0.0"
     inkscape:pageshadow="2"
     inkscape:zoom="1.351626"
     inkscape:cx="-21.606972"
     inkscape:cy="43.753385"
     inkscape:document-units="px"
     inkscape:current-layer="layer1"
     width="6cm"
     height="6cm"
     units="cm"
     inkscape:window-width="1274"
     inkscape:window-height="726"
     inkscape:window-x="0"
     inkscape:window-y="25"
     showgrid="false"
     showguides="true"
     inkscape:guide-bbox="true"
     inkscape:window-maximized="0"
     fit-margin-top="0"
     fit-margin-left="0"
     fit-margin-right="0"
     fit-margin-bottom="0">
    <sodipodi:guide
       orientation="1,0"
       position="237.75686,58.529325"
       id="guide3811" />
    <sodipodi:guide
       orientation="-0.70710678,0.70710678"
       position="96.180452,96.180452"
       id="guide3007" />
  </sodipodi:namedview>
  <metadata
     id="metadata18591">
    <rdf:RDF>
      <cc:Work
         rdf:about="">
        <dc:format>image/svg+xml</dc:format>
        <dc:type
           rdf:resource="http://purl.org/dc/dcmitype/StillImage" />
        <dc:title />
      </cc:Work>
    </rdf:RDF>
  </metadata>
  <g
     inkscape:label="Ebene 1"
     inkscape:groupmode="layer"
     id="layer1"
     transform="translate(14.293658,-4.7713355)">
    <path
       sodipodi:type="arc"
       style="color:#000000;fill:#ffffff;fill-opacity:1;fill-rule:nonzero;stroke:#000000;stroke-width:12;stroke-linecap:round;stroke-linejoin:round;stroke-miterlimit:4;stroke-opacity:1;stroke-dasharray:none;stroke-dashoffset:0;marker:none;visibility:visible;display:inline;overflow:visible;enable-background:accumulate"
       id="path4337"
       sodipodi:cx="-142.42105"
       sodipodi:cy="107.16988"
       sodipodi:rx="75.094734"
       sodipodi:ry="75.094734"
       d="m -67.326317,107.16988 a 75.094734,75.094734 0 1 1 -150.189473,0 75.094734,75.094734 0 1 1 150.189473,0 z"
       transform="matrix(1.1231642,0,0,1.1231642,236.75127,-24.515339)"
       inkscape:export-filename="/home/lila/posgrado/prodmult2/diapos/audio.png"
       inkscape:export-xdpi="10.898185"
       inkscape:export-ydpi="10.898185" />
    <symbol
       style="fill-rule:evenodd"
       id="symbol18404"
       transform="matrix(0.1863264,0,0,0.1863264,-2727.249,-629.37946)">
      <path
         style="fill:#ffffff"
         class="fil0"
         d="m 13815.5,8478.08 c 299.138,0 543.118,243.984 543.118,543.122 0,299.134 -243.98,543.118 -543.118,543.118 -299.134,0 -543.118,-243.984 -543.118,-543.118 0,-299.138 243.984,-543.122 543.118,-543.122 z"
         id="path18383"
         inkscape:connector-curvature="0" />
      <path
         style="fill:#ff0000"
         class="fil1"
         d="m 13815.5,8450.7 c 314.22,0 570.5,256.28 570.5,570.5 0,314.217 -256.28,570.496 -570.5,570.496 -314.22,0 -570.5,-256.28 -570.5,-570.496 0,-314.22 256.28,-570.5 570.5,-570.5 z m -13.508,577.374 c 18.075,0 34.78,6.0276 48.217,16.1732 -12.237,-10.0984 -27.197,-17.185 -43.926,-19.9331 -50.543,-8.2953 -98.531,26.1535 -106.831,76.6969 -0.256,1.5866 -0.472,3.1732 -0.649,4.7598 -48.17,-18.6378 -78.634,-69.315 -69.957,-122.181 l 30.126,-183.5 207.618,22.4094 c 4.185,0.4489 8.169,-4.2992 8.843,-10.5591 l 0,0 c 0.681,-6.2598 -2.205,-11.752 -6.386,-12.2008 l -206.362,-22.2717 2.26,-13.7913 207.713,22.4173 c 4.185,0.4489 8.169,-4.2992 8.842,-10.5591 l 0,0 c 0.681,-6.2598 -2.205,-11.752 -6.386,-12.2008 l -206.453,-22.2835 3.244,-19.752 206.819,22.3228 c 4.185,0.4489 8.17,-4.2992 8.843,-10.5591 l 0,0 c 0.681,-6.2598 -2.201,-11.752 -6.386,-12.2008 l -205.563,-22.185 3.087,-18.8189 208.516,22.5039 c 4.181,0.4489 8.169,-4.2992 8.842,-10.5591 l 0,0 c 0.677,-6.2598 -2.204,-11.752 -6.386,-12.2008 l -207.256,-22.3661 3.433,-20.9291 c 25.209,-153.567 343.126,-111.925 316.228,51.9055 l -57.003,347.287 c -6.04,36.7756 -29.678,66.4803 -60.874,81.9213 0.173,-11.6732 -1.882,-23.0197 -5.804,-33.563 2.477,7.7126 3.827,15.9331 3.827,24.4528 0,37.3268 -25.709,68.8307 -60.327,77.7205 l 0,283.972 c 0,17.4173 -11.574,31.6654 -25.724,31.6654 l -35.618,0 c -14.146,0 -25.721,-14.248 -25.721,-31.6654 l 0,-317.886 c -8.259,-12.6102 -13.082,-27.6614 -13.082,-43.8071 0,-44.1969 36.039,-80.2362 80.236,-80.2362 l 0,0 z"
         id="path18385"
         inkscape:connector-curvature="0" />
    </symbol>
    <symbol
       style="fill-rule:evenodd"
       id="35441304"
       transform="matrix(0.1863264,0,0,0.1863264,-1780.5177,-1202.0537)">
      <path
         style="fill:#ffffff"
         class="fil0"
         d="m 13815.5,8478.08 c 299.138,0 543.118,243.984 543.118,543.122 0,299.134 -243.98,543.118 -543.118,543.118 -299.134,0 -543.118,-243.984 -543.118,-543.118 0,-299.138 243.984,-543.122 543.118,-543.122 z"
         id="path18346"
         inkscape:connector-curvature="0" />
      <path
         style="fill:#ff0000"
         class="fil1"
         d="m 13815.5,8450.7 c 314.22,0 570.5,256.28 570.5,570.5 0,314.217 -256.28,570.496 -570.5,570.496 -314.22,0 -570.5,-256.28 -570.5,-570.496 0,-314.22 256.28,-570.5 570.5,-570.5 z m -13.508,577.374 c 18.075,0 34.78,6.0276 48.217,16.1732 -12.237,-10.0984 -27.197,-17.185 -43.926,-19.9331 -50.543,-8.2953 -98.531,26.1535 -106.831,76.6969 -0.256,1.5866 -0.472,3.1732 -0.649,4.7598 -48.17,-18.6378 -78.634,-69.315 -69.957,-122.181 l 30.126,-183.5 207.618,22.4094 c 4.185,0.4489 8.169,-4.2992 8.843,-10.5591 l 0,0 c 0.681,-6.2598 -2.205,-11.752 -6.386,-12.2008 l -206.362,-22.2717 2.26,-13.7913 207.713,22.4173 c 4.185,0.4489 8.169,-4.2992 8.842,-10.5591 l 0,0 c 0.681,-6.2598 -2.205,-11.752 -6.386,-12.2008 l -206.453,-22.2835 3.244,-19.752 206.819,22.3228 c 4.185,0.4489 8.17,-4.2992 8.843,-10.5591 l 0,0 c 0.681,-6.2598 -2.201,-11.752 -6.386,-12.2008 l -205.563,-22.185 3.087,-18.8189 208.516,22.5039 c 4.181,0.4489 8.169,-4.2992 8.842,-10.5591 l 0,0 c 0.677,-6.2598 -2.204,-11.752 -6.386,-12.2008 l -207.256,-22.3661 3.433,-20.9291 c 25.209,-153.567 343.126,-111.925 316.228,51.9055 l -57.003,347.287 c -6.04,36.7756 -29.678,66.4803 -60.874,81.9213 0.173,-11.6732 -1.882,-23.0197 -5.804,-33.563 2.477,7.7126 3.827,15.9331 3.827,24.4528 0,37.3268 -25.709,68.8307 -60.327,77.7205 l 0,283.972 c 0,17.4173 -11.574,31.6654 -25.724,31.6654 l -35.618,0 c -14.146,0 -25.721,-14.248 -25.721,-31.6654 l 0,-317.886 c -8.259,-12.6102 -13.082,-27.6614 -13.082,-43.8071 0,-44.1969 36.039,-80.2362 80.236,-80.2362 l 0,0 z"
         id="path18348"
         inkscape:connector-curvature="0" />
    </symbol>
    <g
       style="fill-rule:evenodd"
       id="g18353"
       transform="matrix(0.1863264,0,0,0.1863264,-2198.5327,-1179.1183)" />
    <g
       style="fill-rule:evenodd"
       id="g18355"
       transform="matrix(0.1863264,0,0,0.1863264,-2198.5327,-1179.1183)" />
    <g
       style="fill-rule:evenodd"
       id="g18357"
       transform="matrix(0.1863264,0,0,0.1863264,-2198.5327,-1179.1183)" />
    <g
       style="fill-rule:evenodd"
       id="g18359"
       transform="matrix(0.1863264,0,0,0.1863264,-2198.5327,-1179.1183)" />
    <g
       id="g4339"
       transform="translate(-20.38646,-0.49024952)"
       inkscape:export-filename="/home/lila/posgrado/prodmult2/diapos/audio.png"
       inkscape:export-xdpi="10.898185"
       inkscape:export-ydpi="10.898185">
      <rect
         ry="7.3984962"
         y="72.299179"
         x="31.102289"
         height="48.090225"
         width="39.212029"
         id="rect3807"
         style="color:#000000;fill:#000000;fill-opacity:1;fill-rule:nonzero;stroke:none;stroke-width:28;marker:none;visibility:visible;display:inline;overflow:visible;enable-background:accumulate" />
      <path
         transform="matrix(0.75222155,0,0,1.072217,-14.421014,15.14929)"
         d="M 151.3409,121.29014 72.42197,75.72627 151.3409,30.162407 z"
         inkscape:randomized="0"
         inkscape:rounded="0"
         inkscape:flatsided="true"
         sodipodi:arg2="2.0943951"
         sodipodi:arg1="1.0471976"
         sodipodi:r2="26.306311"
         sodipodi:r1="52.612621"
         sodipodi:cy="75.726273"
         sodipodi:cx="125.03459"
         sodipodi:sides="3"
         id="path3809"
         style="color:#000000;fill:#000000;fill-opacity:1;fill-rule:nonzero;stroke:#000000;stroke-width:7.72607613;stroke-linecap:round;stroke-linejoin:round;stroke-miterlimit:4;stroke-dasharray:none;marker:none;visibility:visible;display:inline;overflow:visible;enable-background:accumulate"
         sodipodi:type="star" />
      <path
         transform="matrix(0.73651939,0,0,0.96502915,-51.057245,0.47397412)"
         d="m 210.85714,99.344475 c 0,19.173095 -9.60601,34.715955 -21.45564,34.715955 -11.84962,0 -21.45563,-15.54286 -21.45563,-34.715955 0,-19.173092 9.60601,-34.715954 21.45563,-34.715954 11.84963,0 21.45564,15.542862 21.45564,34.715954 z"
         sodipodi:ry="34.715954"
         sodipodi:rx="21.455639"
         sodipodi:cy="99.344475"
         sodipodi:cx="189.4015"
         id="path4323"
         style="color:#000000;fill:#000000;fill-opacity:1;fill-rule:nonzero;stroke:#000000;stroke-width:8.10000038;stroke-linecap:round;stroke-linejoin:round;stroke-miterlimit:4;stroke-opacity:1;stroke-dasharray:none;stroke-dashoffset:0;marker:none;visibility:visible;display:inline;overflow:visible;enable-background:accumulate"
         sodipodi:type="arc" />
      <path
         sodipodi:nodetypes="csc"
         inkscape:original-d="m 121.71338,124.32419 c 0,0 -7.87543,-5.35017 9.34296,-27.655821 17.2184,-22.305656 -8.95164,-28.30398 -8.95164,-28.30398"
         inkscape:path-effect="#path-effect4331"
         id="path4329"
         d="m 121.71338,124.32419 c 5.9,-7.93924 9.21947,-17.76511 9.34296,-27.655821 0.12566,-10.064108 -3.06178,-20.142389 -8.95164,-28.30398"
         style="fill:none;stroke:#000000;stroke-width:12;stroke-linecap:round;stroke-linejoin:round;stroke-miterlimit:4;stroke-opacity:1;stroke-dasharray:none"
         inkscape:connector-curvature="0" />
      <path
         style="fill:none;stroke:#000000;stroke-width:15.65789032;stroke-linecap:round;stroke-linejoin:round;stroke-miterlimit:4;stroke-opacity:1;stroke-dasharray:none"
         d="m 143.22419,132.85314 c 7.69846,-10.35932 12.02978,-23.18034 12.19092,-36.085988 0.16396,-13.13189 -3.99508,-26.282275 -11.68031,-36.931718"
         id="path4333"
         inkscape:path-effect="#path-effect4335"
         inkscape:original-d="m 143.22419,132.85314 c 0,0 -10.27605,-6.98104 12.19092,-36.085988 C 177.8821,67.662192 143.7348,59.835434 143.7348,59.835434"
         sodipodi:nodetypes="csc"
         inkscape:connector-curvature="0" />
    </g>
    <path
       style="fill:none;stroke:#000000;stroke-width:20;stroke-linecap:butt;stroke-linejoin:miter;stroke-miterlimit:4;stroke-opacity:1;stroke-dasharray:none;display:none"
       d="M 31.443609,150.7218 151.66917,30.496231"
       id="stroke"
       inkscape:connector-curvature="0"
       transform="translate(-14.293658,4.7713355)"
       inkscape:label="#path3009" />
  </g>
</svg>
