<?xml version="1.0" encoding="utf-8"?>
<!-- Generator: Adobe Illustrator 16.0.0, SVG Export Plug-In . SVG Version: 6.00 Build 0)  -->
<!DOCTYPE svg PUBLIC "-//W3C//DTD SVG 1.1//EN" "http://www.w3.org/Graphics/SVG/1.1/DTD/svg11.dtd">
<svg version="1.1" id="Livello_1" xmlns="http://www.w3.org/2000/svg" xmlns:xlink="http://www.w3.org/1999/xlink" x="0px" y="0px"
	 width="100px" height="100px" viewBox="0 0 100 100" enable-background="new 0 0 100 100" xml:space="preserve">
<g>
	<linearGradient id="SVGID_1_" gradientUnits="userSpaceOnUse" x1="50" y1="0" x2="50" y2="100.0005">
		<stop  offset="0.227" style="stop-color:#345E8A"/>
		<stop  offset="1" style="stop-color:#4F7AA4"/>
	</linearGradient>
	<path fill="url(#SVGID_1_)" d="M100,83.197C100,92.439,92.439,100,83.198,100H16.803C7.562,100,0,92.439,0,83.197V16.803
		C0,7.562,7.562,0,16.803,0h66.396C92.439,0,100,7.562,100,16.803V83.197z"/>
	<g>
		<defs>
			<path id="SVGID_2_" d="M100,83.197C100,92.439,92.439,100,83.198,100H16.803C7.562,100,0,92.439,0,83.197V16.803
				C0,7.562,7.562,0,16.803,0h66.396C92.439,0,100,7.562,100,16.803V83.197z"/>
		</defs>
		<clipPath id="SVGID_3_">
			<use xlink:href="#SVGID_2_"  overflow="visible"/>
		</clipPath>
		<linearGradient id="SVGID_4_" gradientUnits="userSpaceOnUse" x1="50.001" y1="-25.1377" x2="50.001" y2="47.5303">
			<stop  offset="0" style="stop-color:#B4C6D4"/>
			<stop  offset="1" style="stop-color:#466E96"/>
		</linearGradient>
		<ellipse clip-path="url(#SVGID_3_)" fill="url(#SVGID_4_)" cx="50.001" cy="11.196" rx="61.844" ry="36.334"/>
	</g>
	<path fill="none" stroke="#2B527F" d="M100,83.197C100,92.439,92.439,100,83.198,100H16.803C7.562,100,0,92.439,0,83.197V16.803
		C0,7.562,7.562,0,16.803,0h66.396C92.439,0,100,7.562,100,16.803V83.197z"/>
	<g>
		<path fill="#FFFFFF" d="M76.539,52.121c-2.741-2.659-4.685-4.405-9.383-5.255v-0.344c3.334-1.345,5.927-3.214,7.753-5.629
			c1.816-2.406,2.741-5.183,2.741-8.332c0-2.703-0.66-5.121-2.003-7.244c-1.333-2.102-3.35-3.798-6.076-5.046
			c-2.625-1.2-5.287-1.964-7.963-2.314c-2.677-0.351-8.667-0.522-14.448-0.522H19.356v65.129h31.27c5.19,0,9.493-0.402,12.876-1.223
			c3.381-0.821,6.484-2.196,9.308-4.107c2.433-1.643,4.352-3.688,5.75-6.182c1.395-2.479,2.084-5.284,2.084-8.436
			C80.644,58.271,79.278,54.775,76.539,52.121z M38.805,30.392h7.963c2.782,0,5.071,0.303,6.866,0.907
			c2.08,0.867,3.121,2.654,3.121,5.361c0,2.444-0.787,4.146-2.36,5.106c-1.574,0.959-3.622,1.438-6.146,1.438h-9.444V30.392z
			 M55.425,68.594c-1.404,0.684-3.366,1.024-5.885,1.024H38.805V54.126h10.93c2.494,0.026,4.43,0.354,5.807,0.985
			c2.467,1.131,3.702,3.207,3.702,6.229C59.243,64.915,57.97,67.332,55.425,68.594z"/>
	</g>
</g>
</svg>
